<svg width="127" height="24" viewBox="0 0 127 24" fill="none" xmlns="http://www.w3.org/2000/svg">
<g id="Group 98">
<g id="Group">
<path id="Vector" d="M42.2682 7.08602C41.8231 6.77976 41.3224 6.5431 40.7522 6.40389C40.1819 6.25076 39.5838 6.18115 38.9579 6.18115C38.332 6.18115 37.3167 6.30644 36.6352 6.55702C35.9537 6.8076 35.3973 7.16955 34.9661 7.65679C34.535 8.13011 34.229 8.71479 34.076 9.38301L36.8438 9.73104C36.9134 9.48046 37.0385 9.25772 37.2194 9.06282C37.4002 8.86793 37.6227 8.70087 37.9148 8.5895C38.2069 8.47814 38.5407 8.40853 38.9162 8.40853C39.2917 8.40853 39.6116 8.46421 39.8759 8.5895C40.1402 8.70087 40.3349 8.88185 40.474 9.09067C40.6131 9.3134 40.6826 9.5779 40.6826 9.88417V9.93985C40.6826 10.1765 40.5852 10.3575 40.4044 10.4828C40.2236 10.6081 39.9315 10.6916 39.5421 10.7473C39.1527 10.803 38.6241 10.8726 37.9704 10.9283C37.4141 10.9839 36.8855 11.0675 36.3709 11.2067C35.8702 11.332 35.4112 11.5269 35.0218 11.7914C34.6323 12.0419 34.3124 12.376 34.0899 12.7937C33.8674 13.2113 33.7422 13.7264 33.7422 14.3528C33.7422 14.9793 33.9091 15.7032 34.229 16.1904C34.5489 16.6777 34.994 17.0535 35.5642 17.3041C36.1345 17.5547 36.7604 17.68 37.4836 17.68C38.2069 17.68 38.5268 17.6104 38.944 17.4573C39.3613 17.3041 39.7229 17.1092 40.015 16.8308C40.3071 16.5663 40.5574 16.26 40.7382 15.912H40.8356V17.4573H43.7008V9.95377C43.7008 9.29948 43.5756 8.72872 43.3253 8.2554C43.0749 7.78208 42.7272 7.39229 42.2821 7.08602H42.2682ZM40.7104 13.4619C40.7104 13.8517 40.6131 14.2136 40.4044 14.5338C40.2097 14.854 39.9176 15.1046 39.5699 15.2856C39.2083 15.4805 38.791 15.564 38.3181 15.564C37.8452 15.564 37.6922 15.5083 37.4419 15.4109C37.1915 15.3134 36.9968 15.1603 36.8438 14.9654C36.7047 14.7705 36.6213 14.5338 36.6213 14.2554C36.6213 13.977 36.7047 13.7125 36.8577 13.5176C37.0107 13.3227 37.2333 13.1556 37.5114 13.0443C37.7896 12.9329 38.1095 12.8354 38.485 12.7937C38.6659 12.7658 38.8606 12.738 39.0831 12.6962C39.3057 12.6684 39.5143 12.6266 39.7368 12.5849C39.9455 12.5431 40.1402 12.5013 40.321 12.4457C40.4879 12.39 40.627 12.3343 40.7104 12.2786V13.4619Z" fill="white"/>
<path id="Vector_2" d="M52.5046 8.14393H52.4212C52.2682 7.82375 52.0596 7.51748 51.7814 7.21122C51.5032 6.91887 51.1694 6.66829 50.7521 6.4734C50.3349 6.2785 49.8342 6.18105 49.2361 6.18105C48.3877 6.18105 47.6227 6.40379 46.9273 6.83535C46.2318 7.28082 45.6894 7.92119 45.2721 8.77038C44.8688 9.61957 44.6602 10.6637 44.6602 11.9166C44.6602 13.1695 44.8549 14.1718 45.2582 15.0349C45.6616 15.8841 46.204 16.5384 46.8995 16.9838C47.5949 17.4293 48.3738 17.666 49.25 17.666C50.1263 17.666 50.3349 17.5685 50.7521 17.3736C51.1694 17.1787 51.5171 16.9421 51.7953 16.6358C52.0735 16.3435 52.296 16.0233 52.449 15.7031H52.5603V17.4711H55.5228V2.4502H52.5185V8.14393H52.5046ZM52.2821 13.6567C52.0874 14.1579 51.8092 14.5476 51.4476 14.8261C51.086 15.1045 50.6409 15.2437 50.1263 15.2437C49.6116 15.2437 49.1805 15.1045 48.8188 14.8261C48.4572 14.5476 48.193 14.1579 47.9982 13.6567C47.8174 13.1555 47.7201 12.5708 47.7201 11.9026C47.7201 11.2344 47.8174 10.6637 47.9982 10.1625C48.179 9.66133 48.4572 9.28546 48.8188 9.00704C49.1805 8.72862 49.6116 8.58941 50.1263 8.58941C50.6409 8.58941 51.086 8.72862 51.4476 8.99312C51.8092 9.27154 52.0874 9.64741 52.2821 10.1486C52.4768 10.6358 52.5742 11.2205 52.5742 11.9026C52.5742 12.5848 52.4768 13.1555 52.2821 13.6567Z" fill="white"/>
<path id="Vector_3" d="M63.1593 11.0257L61.1425 10.622C60.6418 10.5245 60.2802 10.3714 60.0577 10.1904C59.8351 9.99554 59.7239 9.75888 59.7239 9.48046C59.7239 9.20203 59.8908 8.86793 60.2107 8.65911C60.5306 8.45029 60.9478 8.33892 61.4485 8.33892C61.9492 8.33892 62.4221 8.46422 62.7559 8.7148C63.0758 8.96538 63.2845 9.28556 63.3818 9.68927L66.0662 9.3134C65.9549 8.67303 65.7046 8.11619 65.3012 7.65679C64.8979 7.18347 64.3693 6.82152 63.7156 6.57094C63.0619 6.32036 62.283 6.18115 61.379 6.18115C60.4749 6.18115 59.6126 6.32036 58.9172 6.59879C58.2217 6.87721 57.6654 7.28092 57.2898 7.796C56.9004 8.31108 56.7057 8.92361 56.7057 9.63359C56.7057 10.3436 56.9699 11.1649 57.5124 11.6939C58.0548 12.2229 58.8615 12.5988 59.9325 12.8215L61.8519 13.2113C62.3248 13.3088 62.6864 13.4619 62.9228 13.6429C63.1593 13.8238 63.2845 14.0605 63.2845 14.3528C63.2845 14.6452 63.1176 14.9654 62.7977 15.1881C62.4639 15.4109 62.0188 15.5222 61.4485 15.5222C60.8783 15.5222 60.3636 15.3969 60.002 15.1324C59.6404 14.8679 59.39 14.4781 59.2649 13.977L56.4414 14.3668C56.5527 15.0767 56.8308 15.6754 57.2759 16.1765C57.721 16.6777 58.2913 17.0675 58.9867 17.332C59.6821 17.5965 60.4888 17.7357 61.3929 17.7357C62.297 17.7357 63.2288 17.5825 63.9799 17.2763C64.731 16.97 65.3151 16.5385 65.7324 15.9955C66.1496 15.4526 66.3722 14.8122 66.3722 14.0744C66.3722 13.3366 66.1079 12.6266 65.5794 12.1255C65.0509 11.6243 64.2442 11.2763 63.1593 11.0535V11.0257Z" fill="white"/>
<path id="Vector_4" d="M75.8707 6.83535C75.1892 6.38987 74.4103 6.18105 73.5619 6.18105C72.7134 6.18105 72.4631 6.2785 72.0458 6.4734C71.6286 6.66829 71.2808 6.91887 71.0166 7.21122C70.7523 7.50356 70.5298 7.82375 70.3768 8.14393H70.2933V2.4502H67.2891V17.4711H70.2377V15.7031H70.3629C70.5159 16.0233 70.7384 16.3295 71.0027 16.6358C71.2808 16.9282 71.6286 17.1787 72.0458 17.3736C72.4631 17.5685 72.9638 17.666 73.548 17.666C74.4242 17.666 75.217 17.4432 75.8985 16.9838C76.594 16.5384 77.1364 15.8841 77.5397 15.0349C77.9431 14.1857 78.1378 13.1416 78.1378 11.9166C78.1378 10.6915 77.9292 9.63349 77.5258 8.77038C77.1225 7.92119 76.5661 7.28082 75.8846 6.83535H75.8707ZM74.7719 13.6428C74.5911 14.1439 74.3129 14.5337 73.9652 14.8121C73.6036 15.0906 73.1724 15.2298 72.6439 15.2298C72.1154 15.2298 71.712 15.0906 71.3365 14.8121C70.9749 14.5337 70.6967 14.1439 70.502 13.6428C70.3072 13.1416 70.2099 12.5569 70.2099 11.8887C70.2099 11.2205 70.3072 10.6358 70.502 10.1347C70.6967 9.64741 70.9749 9.25762 71.3365 8.9792C71.6981 8.70078 72.1432 8.57549 72.6439 8.57549C73.1446 8.57549 73.6036 8.7147 73.9652 8.99312C74.3268 9.27154 74.5911 9.66133 74.7719 10.1486C74.9527 10.6497 75.0501 11.2205 75.0501 11.8887C75.0501 12.5569 74.9527 13.1416 74.7719 13.6428Z" fill="white"/>
<path id="Vector_5" d="M86.2621 6.33399L84.3149 12.0556C84.0924 12.7656 83.8837 13.4755 83.7029 14.1855C83.6473 14.4082 83.5916 14.6449 83.536 14.8676C83.4804 14.6449 83.4386 14.4082 83.383 14.1855C83.23 13.4755 83.0353 12.7516 82.8128 12.0417L80.9351 6.32007H77.75L81.9504 17.4709L81.8252 18.1113C81.7696 18.4593 81.6583 18.7377 81.4914 18.9326C81.3245 19.1275 81.102 19.2528 80.8099 19.3085C80.5317 19.3642 80.2118 19.3502 79.8363 19.2667L79.2521 19.1832L78.7097 21.4802C78.9461 21.5498 79.2382 21.6055 79.5859 21.6472C79.9337 21.689 80.2953 21.7168 80.6847 21.7168C81.3941 21.7168 82.0061 21.6055 82.5068 21.3688C83.0075 21.1461 83.4386 20.812 83.7864 20.3804C84.1341 19.9488 84.4122 19.4338 84.6487 18.8352L89.4055 6.30615H86.2482L86.2621 6.33399Z" fill="white"/>
<path id="Vector_6" d="M89.8777 18.0138C89.8777 18.4454 89.7804 18.7795 89.5856 18.9883C89.3909 19.1971 89.0432 19.3085 88.5703 19.3085H88.1113V21.689H88.8624C89.7108 21.689 90.4341 21.5637 91.0461 21.3131C91.658 21.0625 92.117 20.6727 92.4369 20.1437C92.7568 19.6147 92.9237 18.9465 92.9098 18.1112V6.33398H89.9055V17.9999L89.8777 18.0138Z" fill="white"/>
<path id="Vector_7" d="M91.3797 1.76807C90.9208 1.76807 90.5313 1.9212 90.2114 2.22746C89.8915 2.53373 89.7246 2.89568 89.7246 3.34115C89.7246 3.78663 89.8915 4.14858 90.2114 4.45484C90.5313 4.76111 90.9347 4.91424 91.3937 4.91424C91.8526 4.91424 92.256 4.76111 92.5759 4.45484C92.8958 4.14858 93.0627 3.78663 93.0627 3.34115C93.0627 2.89568 92.8958 2.53373 92.5759 2.22746C92.256 1.9212 91.8526 1.76807 91.3937 1.76807H91.3797Z" fill="white"/>
<path id="Vector_8" d="M102.256 6.89089C101.436 6.40365 100.462 6.16699 99.3494 6.16699C98.2367 6.16699 97.2631 6.40365 96.4286 6.89089C95.608 7.37813 94.9682 8.04634 94.5231 8.90945C94.078 9.77256 93.8555 10.7888 93.8555 11.9443C93.8555 13.0997 94.078 14.0881 94.5231 14.9512C94.9682 15.8143 95.608 16.4825 96.4286 16.9698C97.2492 17.457 98.2228 17.6937 99.3494 17.6937C100.476 17.6937 101.436 17.457 102.256 16.9698C103.077 16.4825 103.717 15.8143 104.162 14.9512C104.607 14.0881 104.829 13.0858 104.829 11.9443C104.829 10.8027 104.607 9.77256 104.162 8.90945C103.717 8.04634 103.077 7.37813 102.256 6.89089ZM101.505 13.6844C101.311 14.1856 101.046 14.5893 100.685 14.8816C100.323 15.174 99.8779 15.3132 99.3633 15.3132C98.8487 15.3132 98.3897 15.174 98.0281 14.8816C97.6664 14.5893 97.4022 14.1995 97.2075 13.6844C97.0266 13.1832 96.9293 12.5985 96.9293 11.9303C96.9293 11.2621 97.0266 10.6774 97.2075 10.1763C97.3883 9.67511 97.6664 9.2714 98.0281 8.99298C98.3897 8.71456 98.8348 8.56142 99.3633 8.56142C99.8918 8.56142 100.323 8.70064 100.685 8.99298C101.046 9.28532 101.311 9.67511 101.505 10.1763C101.7 10.6774 101.783 11.2621 101.783 11.9303C101.783 12.5985 101.686 13.1693 101.505 13.6844Z" fill="white"/>
<path id="Vector_9" d="M111.491 6.20898C110.851 6.20898 110.295 6.37604 109.822 6.72407C109.349 7.07209 109.015 7.58718 108.821 8.25539H108.723V6.33427H105.816V17.4572H108.821V11.1927C108.821 10.7055 108.918 10.2879 109.127 9.93984C109.321 9.57789 109.613 9.31339 109.961 9.1185C110.323 8.9236 110.726 8.82615 111.171 8.82615C111.616 8.82615 111.644 8.82615 111.894 8.86792C112.145 8.89576 112.34 8.9236 112.465 8.96536V6.30643C112.34 6.27859 112.187 6.26467 112.006 6.25075C111.825 6.25075 111.658 6.23683 111.505 6.23683L111.491 6.20898Z" fill="white"/>
<path id="Vector_10" d="M114.606 1.76807C114.147 1.76807 113.758 1.9212 113.438 2.22746C113.118 2.53373 112.951 2.89568 112.951 3.34115C112.951 3.78663 113.118 4.14858 113.438 4.45484C113.758 4.76111 114.161 4.91424 114.62 4.91424C115.079 4.91424 115.483 4.76111 115.802 4.45484C116.122 4.14858 116.289 3.78663 116.289 3.34115C116.289 2.89568 116.122 2.53373 115.802 2.22746C115.483 1.9212 115.079 1.76807 114.62 1.76807H114.606Z" fill="white"/>
<path id="Vector_11" d="M116.123 6.33398H113.119V17.457H116.123V6.33398Z" fill="white"/>
<path id="Vector_12" d="M126.206 12.0976C125.678 11.5965 124.871 11.2484 123.786 11.0257L121.769 10.622C121.269 10.5245 120.907 10.3714 120.685 10.1904C120.462 9.99554 120.351 9.75888 120.351 9.48046C120.351 9.20203 120.518 8.86793 120.838 8.65911C121.158 8.45029 121.575 8.33892 122.075 8.33892C122.576 8.33892 123.049 8.46422 123.383 8.7148C123.703 8.96538 123.911 9.28556 124.009 9.68927L126.693 9.3134C126.582 8.67303 126.332 8.11619 125.928 7.65679C125.525 7.18347 124.996 6.82152 124.343 6.57094C123.689 6.32036 122.91 6.18115 122.006 6.18115C121.102 6.18115 120.24 6.32036 119.544 6.59879C118.849 6.87721 118.292 7.28092 117.917 7.796C117.527 8.31108 117.333 8.92361 117.333 9.63359C117.333 10.3436 117.597 11.1649 118.139 11.6939C118.682 12.2229 119.488 12.5988 120.559 12.8215L122.479 13.2113C122.952 13.3088 123.313 13.4619 123.55 13.6429C123.786 13.8238 123.911 14.0605 123.911 14.3528C123.911 14.6452 123.745 14.9654 123.425 15.1881C123.091 15.4109 122.646 15.5222 122.075 15.5222C121.505 15.5222 120.991 15.3969 120.629 15.1324C120.267 14.8679 120.017 14.4781 119.892 13.977L117.068 14.3668C117.18 15.0767 117.458 15.6754 117.903 16.1765C118.348 16.6777 118.918 17.0675 119.614 17.332C120.309 17.5965 121.116 17.7357 122.02 17.7357C122.924 17.7357 123.856 17.5825 124.607 17.2763C125.358 16.97 125.942 16.5385 126.359 15.9955C126.777 15.4526 126.999 14.8122 126.999 14.0744C126.999 13.3366 126.735 12.6266 126.206 12.1255V12.0976Z" fill="white"/>
</g>
<path id="Vector_13" d="M18.3177 4.77494L15.6612 0H9.05454L6.38408 4.77494L0.598073 15.174H6.55098L12.3509 4.77494L20.1536 18.7935H0L2.893 24H22.0174L25.5224 17.7077L23.144 13.4339L18.3177 4.77494Z" fill="#25DFD6"/>
</g>
</svg>
